<?xml version="1.0" encoding="UTF-8"?>
<mxfile host="app.diagrams.net" modified="2022-03-27T19:21:27.247Z" agent="5.0 (X11)" etag="UrUEsoNOd0SjpH9sQaK0" version="17.2.4" type="device">
  <diagram name="Page-1" id="e7e014a7-5840-1c2e-5031-d8a46d1fe8dd">
    <mxGraphModel dx="1422" dy="905" grid="1" gridSize="10" guides="1" tooltips="1" connect="1" arrows="1" fold="1" page="1" pageScale="1" pageWidth="1169" pageHeight="826" background="none" math="0" shadow="0">
      <root>
        <mxCell id="0" />
        <mxCell id="1" parent="0" />
        <mxCell id="cancNr_CZB2pUsivO69R-43" value="uni" style="shape=umlFrame;whiteSpace=wrap;html=1;width=150;height=40;" parent="1" vertex="1">
          <mxGeometry x="320" y="80" width="1080" height="1750" as="geometry" />
        </mxCell>
        <mxCell id="cancNr_CZB2pUsivO69R-52" value="" style="html=1;verticalAlign=top;" parent="1" vertex="1">
          <mxGeometry x="550" y="140" width="700" height="1630" as="geometry" />
        </mxCell>
        <mxCell id="cancNr_CZB2pUsivO69R-44" value="&lt;div&gt;Student&lt;/div&gt;" style="shape=umlActor;verticalLabelPosition=bottom;verticalAlign=top;html=1;outlineConnect=0;fillColor=rgb(255, 255, 255);strokeColor=rgb(0, 0, 0);fontColor=rgb(0, 0, 0);" parent="1" vertex="1">
          <mxGeometry x="370" y="915" width="30" height="60" as="geometry" />
        </mxCell>
        <mxCell id="cancNr_CZB2pUsivO69R-49" value="View card data&lt;br&gt;in the app" style="ellipse;whiteSpace=wrap;html=1;" parent="1" vertex="1">
          <mxGeometry x="690" y="210" width="140" height="70" as="geometry" />
        </mxCell>
        <mxCell id="cancNr_CZB2pUsivO69R-57" value="Door locks" style="shape=umlActor;verticalLabelPosition=bottom;verticalAlign=top;html=1;outlineConnect=0;fillColor=rgb(255, 255, 255);strokeColor=rgb(0, 0, 0);fontColor=rgb(0, 0, 0);" parent="1" vertex="1">
          <mxGeometry x="1300" y="180" width="30" height="60" as="geometry" />
        </mxCell>
        <mxCell id="AEIaESDtm4KYF-DPF8dB-1" value="" style="endArrow=none;html=1;rounded=0;exitX=0.5;exitY=0.5;exitDx=0;exitDy=0;exitPerimeter=0;entryX=0;entryY=0.5;entryDx=0;entryDy=0;" parent="1" source="cancNr_CZB2pUsivO69R-44" target="cancNr_CZB2pUsivO69R-49" edge="1">
          <mxGeometry width="50" height="50" relative="1" as="geometry">
            <mxPoint x="700" y="560" as="sourcePoint" />
            <mxPoint x="750" y="510" as="targetPoint" />
          </mxGeometry>
        </mxCell>
        <mxCell id="AEIaESDtm4KYF-DPF8dB-3" value="Access university&lt;br&gt;services" style="ellipse;whiteSpace=wrap;html=1;" parent="1" vertex="1">
          <mxGeometry x="690" y="330" width="140" height="70" as="geometry" />
        </mxCell>
        <mxCell id="AEIaESDtm4KYF-DPF8dB-4" value="View location of&amp;nbsp;&lt;br&gt;classrooms" style="ellipse;whiteSpace=wrap;html=1;" parent="1" vertex="1">
          <mxGeometry x="690" y="530" width="140" height="70" as="geometry" />
        </mxCell>
        <mxCell id="AEIaESDtm4KYF-DPF8dB-5" value="View university notifications" style="ellipse;whiteSpace=wrap;html=1;" parent="1" vertex="1">
          <mxGeometry x="690" y="720" width="140" height="70" as="geometry" />
        </mxCell>
        <mxCell id="AEIaESDtm4KYF-DPF8dB-6" value="View sticky notes" style="ellipse;whiteSpace=wrap;html=1;" parent="1" vertex="1">
          <mxGeometry x="690" y="910" width="140" height="70" as="geometry" />
        </mxCell>
        <mxCell id="AEIaESDtm4KYF-DPF8dB-7" value="Book library rooms" style="ellipse;whiteSpace=wrap;html=1;" parent="1" vertex="1">
          <mxGeometry x="690" y="1110" width="140" height="70" as="geometry" />
        </mxCell>
        <mxCell id="AEIaESDtm4KYF-DPF8dB-8" value="" style="endArrow=none;html=1;rounded=0;exitX=0.5;exitY=0.5;exitDx=0;exitDy=0;exitPerimeter=0;entryX=0;entryY=0.5;entryDx=0;entryDy=0;" parent="1" source="cancNr_CZB2pUsivO69R-44" target="AEIaESDtm4KYF-DPF8dB-3" edge="1">
          <mxGeometry width="50" height="50" relative="1" as="geometry">
            <mxPoint x="700" y="460" as="sourcePoint" />
            <mxPoint x="750" y="410" as="targetPoint" />
          </mxGeometry>
        </mxCell>
        <mxCell id="AEIaESDtm4KYF-DPF8dB-9" value="Printers" style="shape=umlActor;verticalLabelPosition=bottom;verticalAlign=top;html=1;outlineConnect=0;fillColor=rgb(255, 255, 255);strokeColor=rgb(0, 0, 0);fontColor=rgb(0, 0, 0);" parent="1" vertex="1">
          <mxGeometry x="1300" y="310" width="30" height="60" as="geometry" />
        </mxCell>
        <mxCell id="AEIaESDtm4KYF-DPF8dB-10" value="Canteens" style="shape=umlActor;verticalLabelPosition=bottom;verticalAlign=top;html=1;outlineConnect=0;fillColor=rgb(255, 255, 255);strokeColor=rgb(0, 0, 0);fontColor=rgb(0, 0, 0);" parent="1" vertex="1">
          <mxGeometry x="1300" y="430" width="30" height="60" as="geometry" />
        </mxCell>
        <mxCell id="AEIaESDtm4KYF-DPF8dB-11" value="" style="html=1;verticalAlign=bottom;endArrow=open;dashed=1;endSize=8;rounded=0;exitX=1;exitY=0.5;exitDx=0;exitDy=0;entryX=0.5;entryY=0.5;entryDx=0;entryDy=0;entryPerimeter=0;" parent="1" source="AEIaESDtm4KYF-DPF8dB-3" target="cancNr_CZB2pUsivO69R-57" edge="1">
          <mxGeometry relative="1" as="geometry">
            <mxPoint x="760" y="560" as="sourcePoint" />
            <mxPoint x="680" y="560" as="targetPoint" />
            <Array as="points">
              <mxPoint x="830" y="290" />
              <mxPoint x="1150" y="290" />
              <mxPoint x="1150" y="210" />
            </Array>
          </mxGeometry>
        </mxCell>
        <mxCell id="AEIaESDtm4KYF-DPF8dB-12" value="" style="html=1;verticalAlign=bottom;endArrow=open;dashed=1;endSize=8;rounded=0;exitX=1;exitY=0.5;exitDx=0;exitDy=0;entryX=0.5;entryY=0.5;entryDx=0;entryDy=0;entryPerimeter=0;" parent="1" source="AEIaESDtm4KYF-DPF8dB-3" target="AEIaESDtm4KYF-DPF8dB-9" edge="1">
          <mxGeometry relative="1" as="geometry">
            <mxPoint x="840" y="355" as="sourcePoint" />
            <mxPoint x="1205" y="220" as="targetPoint" />
            <Array as="points">
              <mxPoint x="1070" y="365" />
              <mxPoint x="1070" y="340" />
            </Array>
          </mxGeometry>
        </mxCell>
        <mxCell id="AEIaESDtm4KYF-DPF8dB-13" value="" style="html=1;verticalAlign=bottom;endArrow=open;dashed=1;endSize=8;rounded=0;exitX=1;exitY=0.5;exitDx=0;exitDy=0;entryX=0.5;entryY=0.5;entryDx=0;entryDy=0;entryPerimeter=0;" parent="1" source="AEIaESDtm4KYF-DPF8dB-3" target="AEIaESDtm4KYF-DPF8dB-10" edge="1">
          <mxGeometry relative="1" as="geometry">
            <mxPoint x="850" y="365" as="sourcePoint" />
            <mxPoint x="1215" y="230" as="targetPoint" />
            <Array as="points">
              <mxPoint x="830" y="460" />
            </Array>
          </mxGeometry>
        </mxCell>
        <mxCell id="AEIaESDtm4KYF-DPF8dB-15" value="" style="endArrow=none;html=1;rounded=0;exitX=0.5;exitY=0.5;exitDx=0;exitDy=0;exitPerimeter=0;entryX=0;entryY=0.5;entryDx=0;entryDy=0;" parent="1" source="cancNr_CZB2pUsivO69R-44" target="AEIaESDtm4KYF-DPF8dB-4" edge="1">
          <mxGeometry width="50" height="50" relative="1" as="geometry">
            <mxPoint x="700" y="610" as="sourcePoint" />
            <mxPoint x="750" y="560" as="targetPoint" />
          </mxGeometry>
        </mxCell>
        <mxCell id="AEIaESDtm4KYF-DPF8dB-16" value="Manage notifications" style="ellipse;whiteSpace=wrap;html=1;" parent="1" vertex="1">
          <mxGeometry x="890" y="756" width="100" height="70" as="geometry" />
        </mxCell>
        <mxCell id="AEIaESDtm4KYF-DPF8dB-17" value="" style="html=1;verticalAlign=bottom;endArrow=open;dashed=1;endSize=8;rounded=0;exitX=0;exitY=0.5;exitDx=0;exitDy=0;entryX=1;entryY=0.5;entryDx=0;entryDy=0;" parent="1" source="AEIaESDtm4KYF-DPF8dB-16" target="AEIaESDtm4KYF-DPF8dB-5" edge="1">
          <mxGeometry relative="1" as="geometry">
            <mxPoint x="760" y="700" as="sourcePoint" />
            <mxPoint x="680" y="700" as="targetPoint" />
            <Array as="points">
              <mxPoint x="860" y="790" />
              <mxPoint x="860" y="755" />
            </Array>
          </mxGeometry>
        </mxCell>
        <mxCell id="AEIaESDtm4KYF-DPF8dB-18" value="" style="endArrow=none;html=1;rounded=0;exitX=0.5;exitY=0.5;exitDx=0;exitDy=0;exitPerimeter=0;entryX=0;entryY=0.5;entryDx=0;entryDy=0;" parent="1" source="cancNr_CZB2pUsivO69R-44" target="AEIaESDtm4KYF-DPF8dB-5" edge="1">
          <mxGeometry width="50" height="50" relative="1" as="geometry">
            <mxPoint x="700" y="730" as="sourcePoint" />
            <mxPoint x="750" y="680" as="targetPoint" />
          </mxGeometry>
        </mxCell>
        <mxCell id="AEIaESDtm4KYF-DPF8dB-20" value="" style="html=1;verticalAlign=bottom;endArrow=open;dashed=1;endSize=8;rounded=0;exitX=0;exitY=0.5;exitDx=0;exitDy=0;entryX=1;entryY=0.5;entryDx=0;entryDy=0;" parent="1" source="AEIaESDtm4KYF-DPF8dB-38" target="AEIaESDtm4KYF-DPF8dB-6" edge="1">
          <mxGeometry relative="1" as="geometry">
            <mxPoint x="870.5025253169415" y="980.2512626584708" as="sourcePoint" />
            <mxPoint x="680" y="860" as="targetPoint" />
            <Array as="points">
              <mxPoint x="860" y="985" />
              <mxPoint x="860" y="945" />
            </Array>
          </mxGeometry>
        </mxCell>
        <mxCell id="AEIaESDtm4KYF-DPF8dB-22" value="" style="endArrow=none;html=1;rounded=0;exitX=0.5;exitY=0.5;exitDx=0;exitDy=0;exitPerimeter=0;entryX=0;entryY=0.5;entryDx=0;entryDy=0;" parent="1" source="cancNr_CZB2pUsivO69R-44" target="AEIaESDtm4KYF-DPF8dB-6" edge="1">
          <mxGeometry width="50" height="50" relative="1" as="geometry">
            <mxPoint x="700" y="890" as="sourcePoint" />
            <mxPoint x="750" y="840" as="targetPoint" />
          </mxGeometry>
        </mxCell>
        <mxCell id="AEIaESDtm4KYF-DPF8dB-25" value="" style="html=1;verticalAlign=bottom;endArrow=open;dashed=1;endSize=8;rounded=0;exitX=0.5;exitY=0;exitDx=0;exitDy=0;entryX=0;entryY=1;entryDx=0;entryDy=0;" parent="1" source="AEIaESDtm4KYF-DPF8dB-40" target="AEIaESDtm4KYF-DPF8dB-7" edge="1">
          <mxGeometry relative="1" as="geometry">
            <mxPoint x="730" y="1220" as="sourcePoint" />
            <mxPoint x="730" y="1180" as="targetPoint" />
          </mxGeometry>
        </mxCell>
        <mxCell id="AEIaESDtm4KYF-DPF8dB-26" value="" style="html=1;verticalAlign=bottom;endArrow=open;dashed=1;endSize=8;rounded=0;exitX=0.5;exitY=0;exitDx=0;exitDy=0;entryX=1;entryY=0.5;entryDx=0;entryDy=0;" parent="1" source="AEIaESDtm4KYF-DPF8dB-39" target="AEIaESDtm4KYF-DPF8dB-7" edge="1">
          <mxGeometry relative="1" as="geometry">
            <mxPoint x="890.5025253169415" y="1230.2512626584708" as="sourcePoint" />
            <mxPoint x="680" y="1110" as="targetPoint" />
            <Array as="points">
              <mxPoint x="860" y="1185" />
              <mxPoint x="860" y="1145" />
            </Array>
          </mxGeometry>
        </mxCell>
        <mxCell id="AEIaESDtm4KYF-DPF8dB-28" value="" style="endArrow=none;html=1;rounded=0;exitX=0;exitY=0.5;exitDx=0;exitDy=0;entryX=0.5;entryY=0.5;entryDx=0;entryDy=0;entryPerimeter=0;" parent="1" source="AEIaESDtm4KYF-DPF8dB-7" target="cancNr_CZB2pUsivO69R-44" edge="1">
          <mxGeometry width="50" height="50" relative="1" as="geometry">
            <mxPoint x="680" y="1040" as="sourcePoint" />
            <mxPoint x="730" y="990" as="targetPoint" />
          </mxGeometry>
        </mxCell>
        <mxCell id="AEIaESDtm4KYF-DPF8dB-29" value="Printing documents" style="ellipse;whiteSpace=wrap;html=1;" parent="1" vertex="1">
          <mxGeometry x="690" y="1530" width="140" height="70" as="geometry" />
        </mxCell>
        <mxCell id="AEIaESDtm4KYF-DPF8dB-34" value="" style="html=1;verticalAlign=bottom;endArrow=open;dashed=1;endSize=8;rounded=0;entryX=0.5;entryY=1;entryDx=0;entryDy=0;exitX=0.5;exitY=0;exitDx=0;exitDy=0;" parent="1" source="AEIaESDtm4KYF-DPF8dB-41" target="AEIaESDtm4KYF-DPF8dB-29" edge="1">
          <mxGeometry relative="1" as="geometry">
            <mxPoint x="714" y="1641" as="sourcePoint" />
            <mxPoint x="660" y="1641" as="targetPoint" />
            <Array as="points">
              <mxPoint x="720" y="1631" />
              <mxPoint x="760" y="1631" />
            </Array>
          </mxGeometry>
        </mxCell>
        <mxCell id="AEIaESDtm4KYF-DPF8dB-35" value="" style="html=1;verticalAlign=bottom;endArrow=open;dashed=1;endSize=8;rounded=0;exitX=0;exitY=0;exitDx=0;exitDy=0;entryX=1;entryY=1;entryDx=0;entryDy=0;" parent="1" source="AEIaESDtm4KYF-DPF8dB-43" target="AEIaESDtm4KYF-DPF8dB-29" edge="1">
          <mxGeometry relative="1" as="geometry">
            <mxPoint x="810.5025253169415" y="1673.2512626584708" as="sourcePoint" />
            <mxPoint x="660" y="1641" as="targetPoint" />
            <Array as="points">
              <mxPoint x="835" y="1621" />
              <mxPoint x="809" y="1621" />
            </Array>
          </mxGeometry>
        </mxCell>
        <mxCell id="AEIaESDtm4KYF-DPF8dB-36" value="" style="html=1;verticalAlign=bottom;endArrow=open;dashed=1;endSize=8;rounded=0;exitX=0;exitY=0.5;exitDx=0;exitDy=0;entryX=1;entryY=0.5;entryDx=0;entryDy=0;" parent="1" source="AEIaESDtm4KYF-DPF8dB-42" target="AEIaESDtm4KYF-DPF8dB-29" edge="1">
          <mxGeometry relative="1" as="geometry">
            <mxPoint x="873.5025253169415" y="1599.2512626584708" as="sourcePoint" />
            <mxPoint x="660" y="1641" as="targetPoint" />
            <Array as="points">
              <mxPoint x="870" y="1595" />
              <mxPoint x="870" y="1566" />
            </Array>
          </mxGeometry>
        </mxCell>
        <mxCell id="AEIaESDtm4KYF-DPF8dB-37" value="View a Curricular Unit&lt;br&gt;info" style="ellipse;whiteSpace=wrap;html=1;" parent="1" vertex="1">
          <mxGeometry x="690" y="1370" width="140" height="70" as="geometry" />
        </mxCell>
        <mxCell id="AEIaESDtm4KYF-DPF8dB-38" value="Manage sticky notes" style="ellipse;whiteSpace=wrap;html=1;" parent="1" vertex="1">
          <mxGeometry x="890" y="950" width="100" height="70" as="geometry" />
        </mxCell>
        <mxCell id="AEIaESDtm4KYF-DPF8dB-39" value="Choose a date and a duration" style="ellipse;whiteSpace=wrap;html=1;" parent="1" vertex="1">
          <mxGeometry x="810" y="1220" width="100" height="70" as="geometry" />
        </mxCell>
        <mxCell id="AEIaESDtm4KYF-DPF8dB-40" value="Manage bookings" style="ellipse;whiteSpace=wrap;html=1;" parent="1" vertex="1">
          <mxGeometry x="660" y="1220" width="100" height="70" as="geometry" />
        </mxCell>
        <mxCell id="AEIaESDtm4KYF-DPF8dB-41" value="Choose printing formats" style="ellipse;whiteSpace=wrap;html=1;" parent="1" vertex="1">
          <mxGeometry x="670" y="1650" width="100" height="70" as="geometry" />
        </mxCell>
        <mxCell id="AEIaESDtm4KYF-DPF8dB-42" value="Manage printing queue" style="ellipse;whiteSpace=wrap;html=1;" parent="1" vertex="1">
          <mxGeometry x="890" y="1560" width="100" height="70" as="geometry" />
        </mxCell>
        <mxCell id="AEIaESDtm4KYF-DPF8dB-43" value="Upload documents" style="ellipse;whiteSpace=wrap;html=1;" parent="1" vertex="1">
          <mxGeometry x="820" y="1630" width="100" height="70" as="geometry" />
        </mxCell>
        <mxCell id="AEIaESDtm4KYF-DPF8dB-47" value="" style="endArrow=none;html=1;rounded=0;exitX=0.5;exitY=0.5;exitDx=0;exitDy=0;exitPerimeter=0;entryX=0;entryY=0.5;entryDx=0;entryDy=0;" parent="1" source="cancNr_CZB2pUsivO69R-44" target="AEIaESDtm4KYF-DPF8dB-29" edge="1">
          <mxGeometry width="50" height="50" relative="1" as="geometry">
            <mxPoint x="1580" y="1010" as="sourcePoint" />
            <mxPoint x="1630" y="960" as="targetPoint" />
          </mxGeometry>
        </mxCell>
        <mxCell id="AEIaESDtm4KYF-DPF8dB-48" value="" style="endArrow=none;html=1;rounded=0;exitX=0.5;exitY=0.5;exitDx=0;exitDy=0;exitPerimeter=0;entryX=0;entryY=0.5;entryDx=0;entryDy=0;" parent="1" source="cancNr_CZB2pUsivO69R-44" target="AEIaESDtm4KYF-DPF8dB-37" edge="1">
          <mxGeometry width="50" height="50" relative="1" as="geometry">
            <mxPoint x="690" y="1310" as="sourcePoint" />
            <mxPoint x="740" y="1260" as="targetPoint" />
          </mxGeometry>
        </mxCell>
        <mxCell id="AEIaESDtm4KYF-DPF8dB-50" value="" style="html=1;verticalAlign=bottom;endArrow=open;dashed=1;endSize=8;rounded=0;exitX=1;exitY=0;exitDx=0;exitDy=0;entryX=0.5;entryY=0.5;entryDx=0;entryDy=0;entryPerimeter=0;" parent="1" target="AEIaESDtm4KYF-DPF8dB-52" edge="1">
          <mxGeometry relative="1" as="geometry">
            <mxPoint x="810.4974746830585" y="1120.2512626584708" as="sourcePoint" />
            <mxPoint x="1301" y="1100.296442687747" as="targetPoint" />
            <Array as="points">
              <mxPoint x="810" y="1100" />
            </Array>
          </mxGeometry>
        </mxCell>
        <mxCell id="AEIaESDtm4KYF-DPF8dB-52" value="SIGARRA" style="shape=umlActor;verticalLabelPosition=bottom;verticalAlign=top;html=1;outlineConnect=0;fillColor=rgb(255, 255, 255);strokeColor=rgb(0, 0, 0);fontColor=rgb(0, 0, 0);" parent="1" vertex="1">
          <mxGeometry x="1300" y="1070" width="30" height="60" as="geometry" />
        </mxCell>
        <mxCell id="AEIaESDtm4KYF-DPF8dB-53" value="Webprint Server" style="shape=umlActor;verticalLabelPosition=bottom;verticalAlign=top;html=1;outlineConnect=0;fillColor=rgb(255, 255, 255);strokeColor=rgb(0, 0, 0);fontColor=rgb(0, 0, 0);" parent="1" vertex="1">
          <mxGeometry x="1300" y="1470" width="30" height="60" as="geometry" />
        </mxCell>
        <mxCell id="AEIaESDtm4KYF-DPF8dB-55" value="" style="html=1;verticalAlign=bottom;endArrow=open;dashed=1;endSize=8;rounded=0;exitX=0.5;exitY=1;exitDx=0;exitDy=0;entryX=0;entryY=0.3333333333333333;entryDx=0;entryDy=0;entryPerimeter=0;" parent="1" edge="1">
          <mxGeometry relative="1" as="geometry">
            <mxPoint x="770" y="784" as="sourcePoint" />
            <mxPoint x="1310" y="1084" as="targetPoint" />
            <Array as="points">
              <mxPoint x="770" y="844" />
              <mxPoint x="1120" y="844" />
              <mxPoint x="1120" y="1084" />
            </Array>
          </mxGeometry>
        </mxCell>
        <mxCell id="AEIaESDtm4KYF-DPF8dB-56" value="" style="html=1;verticalAlign=bottom;endArrow=open;dashed=1;endSize=8;rounded=0;exitX=1;exitY=0.5;exitDx=0;exitDy=0;entryX=0;entryY=1;entryDx=0;entryDy=0;entryPerimeter=0;" parent="1" source="AEIaESDtm4KYF-DPF8dB-37" target="AEIaESDtm4KYF-DPF8dB-52" edge="1">
          <mxGeometry relative="1" as="geometry">
            <mxPoint x="750" y="1340" as="sourcePoint" />
            <mxPoint x="1115" y="1150" as="targetPoint" />
            <Array as="points">
              <mxPoint x="1110" y="1405" />
              <mxPoint x="1110" y="1130" />
            </Array>
          </mxGeometry>
        </mxCell>
        <mxCell id="AEIaESDtm4KYF-DPF8dB-57" value="" style="html=1;verticalAlign=bottom;endArrow=open;dashed=1;endSize=8;rounded=0;exitX=0.5;exitY=0;exitDx=0;exitDy=0;entryX=0.5;entryY=0.5;entryDx=0;entryDy=0;entryPerimeter=0;" parent="1" source="AEIaESDtm4KYF-DPF8dB-29" target="AEIaESDtm4KYF-DPF8dB-53" edge="1">
          <mxGeometry relative="1" as="geometry">
            <mxPoint x="750" y="1550" as="sourcePoint" />
            <mxPoint x="670" y="1550" as="targetPoint" />
            <Array as="points">
              <mxPoint x="760" y="1500" />
            </Array>
          </mxGeometry>
        </mxCell>
        <mxCell id="AEIaESDtm4KYF-DPF8dB-60" value="" style="html=1;verticalAlign=bottom;endArrow=open;dashed=1;endSize=8;rounded=0;exitX=1;exitY=0.5;exitDx=0;exitDy=0;entryX=0.5;entryY=0;entryDx=0;entryDy=0;entryPerimeter=0;" parent="1" source="AEIaESDtm4KYF-DPF8dB-4" target="AEIaESDtm4KYF-DPF8dB-52" edge="1">
          <mxGeometry relative="1" as="geometry">
            <mxPoint x="810" y="780" as="sourcePoint" />
            <mxPoint x="1180" y="1030" as="targetPoint" />
            <Array as="points">
              <mxPoint x="1190" y="565" />
              <mxPoint x="1190" y="1070" />
            </Array>
          </mxGeometry>
        </mxCell>
      </root>
    </mxGraphModel>
  </diagram>
</mxfile>
